# File created by Blade
# Date/Time:  Tue Jan 27 18:12:42 2015
# Frame Rate: 120.000 fps
#------------------------------------------------------
:FULLY-SPECIFIED
:DEGREES
3549
root -1.732327 31.881515 -7.149673 6.244656 -9.949865 1.613611
Spine -3.741450 -25.927238 -2.615604
Head 17.332128 41.899035 16.920024
LeftShoulder -17.756331 18.251871 2.941565
LeftArm 26.441486 38.205402 -69.413455
LeftForeArm -0.918170 -0.000000 17.559688
LeftHand -11.223650 -0.000000 -2.694110
LeftHandThumb1 -26.253704 0.000000 33.147579
RightShoulder -23.067685 -10.944665 -20.093580
RightArm -35.412014 60.112629 40.913025
RightForeArm 32.811736 -0.000000 113.915318
RightHand -16.140405 -0.000000 -16.365403
RightHandThumb1 -24.326973 -0.000000 -32.862282
LeftUpLeg -0.956701 10.090751 -0.549316
LeftLeg 0.383585 -0.000000 -0.000000
LeftFoot -21.137031 21.682131 -26.992110
LeftToeBase 8.960327 -0.000000 -0.000000
RightUpLeg -3.358930 6.297152 -3.218937
RightLeg -2.947996 -0.000000 0.000000
RightFoot -11.490267 -7.207981 8.725149
RightToeBase 4.841226 -0.000000 -0.000000
3550
root -1.733209 31.881922 -7.150726 6.242519 -9.955148 1.610501
Spine -3.741138 -25.928069 -2.626168
Head 17.406104 41.885041 16.959599
LeftShoulder -17.747729 18.225414 2.946505
LeftArm 26.431164 38.219965 -69.409144
LeftForeArm -0.909802 -0.000000 17.546876
LeftHand -11.164879 0.000000 -2.706027
LeftHandThumb1 -26.253704 0.000000 33.147579
RightShoulder -23.077291 -10.925517 -20.100122
RightArm -35.406765 60.102991 40.927500
RightForeArm 32.817389 0.000000 113.921262
RightHand -16.132247 -0.000000 -16.340535
RightHandThumb1 -24.326973 -0.000000 -32.862282
LeftUpLeg -0.958596 10.072644 -0.545349
LeftLeg 0.389642 -0.000000 -0.000000
LeftFoot -21.147545 21.703709 -27.007642
LeftToeBase 8.916788 -0.000000 -0.000000
RightUpLeg -3.360834 6.307047 -3.214369
RightLeg -2.945229 -0.000000 0.000000
RightFoot -11.483066 -7.225233 8.687471
RightToeBase 4.834146 -0.000000 -0.000000
3551
root -1.734472 31.881979 -7.150875 6.242106 -9.965409 1.604434
Spine -3.747407 -25.923146 -2.633469
Head 17.441724 41.848849 16.969291
LeftShoulder -17.737867 18.233779 2.951792
LeftArm 26.450392 38.227128 -69.397094
LeftForeArm -0.922488 -0.000000 17.535262
LeftHand -11.150390 -0.000000 -2.713125
LeftHandThumb1 -26.253704 0.000000 33.147579
RightShoulder -23.086129 -10.914629 -20.101693
RightArm -35.389256 60.086452 40.945382
RightForeArm 32.796172 -0.000000 113.927133
RightHand -16.141554 -0.000000 -16.322596
RightHandThumb1 -24.326973 -0.000000 -32.862282
LeftUpLeg -0.955086 10.064406 -0.537541
LeftLeg 0.389915 -0.000000 -0.000000
LeftFoot -21.157447 21.721930 -27.006435
LeftToeBase 8.944247 -0.000000 -0.000000
RightUpLeg -3.365908 6.300454 -3.206198
RightLeg -2.933949 -0.000000 0.000000
RightFoot -11.490114 -7.198360 8.715169
RightToeBase 4.873740 -0.000000 -0.000000
3552
root -1.735504 31.881992 -7.151042 6.241152 -9.977715 1.599631
Spine -3.751867 -25.922235 -2.647096
Head 17.474395 41.818766 16.988707
LeftShoulder -17.735792 18.222334 2.962767
LeftArm 26.452414 38.236711 -69.400798
LeftForeArm -0.945302 -0.000000 17.499188
LeftHand -11.092099 -0.000000 -2.701926
LeftHandThumb1 -26.253704 0.000000 33.147579
RightShoulder -23.082802 -10.897749 -20.100117
RightArm -35.391008 60.070299 40.942743
RightForeArm 32.764494 -0.000000 113.932285
RightHand -16.101768 -0.000000 -16.345830
RightHandThumb1 -24.326973 -0.000000 -32.862282
LeftUpLeg -0.950905 10.068057 -0.532745
LeftLeg 0.390297 -0.000000 -0.000000
LeftFoot -21.172457 21.722142 -27.033464
LeftToeBase 8.951405 -0.000000 -0.000000
RightUpLeg -3.366330 6.315251 -3.200623
RightLeg -2.933955 -0.000000 0.000000
RightFoot -11.489916 -7.201361 8.726155
RightToeBase 4.904645 -0.000000 -0.000000
3553
root -1.736113 31.881944 -7.150580 6.232665 -9.992397 1.596098
Spine -3.750437 -25.935432 -2.660360
Head 17.521277 41.802714 17.015232
LeftShoulder -17.755927 18.220828 2.958306
LeftArm 26.451703 38.247335 -69.395521
LeftForeArm -0.956562 -0.000000 17.504923
LeftHand -11.098911 -0.000000 -2.692081
LeftHandThumb1 -26.253704 0.000000 33.147579
RightShoulder -23.073049 -10.865475 -20.116220
RightArm -35.394255 60.057358 40.944922
RightForeArm 32.765862 0.000000 113.934419
RightHand -16.038948 0.000000 -16.322738
RightHandThumb1 -24.326973 -0.000000 -32.862282
LeftUpLeg -0.932366 10.057399 -0.524306
LeftLeg 0.376661 -0.000000 -0.000000
LeftFoot -21.156477 21.738499 -27.011239
LeftToeBase 8.907098 -0.000000 -0.000000
RightUpLeg -3.358958 6.319663 -3.195366
RightLeg -2.933138 -0.000000 0.000000
RightFoot -11.482316 -7.192025 8.717768
RightToeBase 4.879407 -0.000000 -0.000000
3554
root -1.736714 31.882043 -7.151204 6.231424 -9.997607 1.590418
Spine -3.754069 -25.936140 -2.671627
Head 17.549311 41.754411 17.031088
LeftShoulder -17.745199 18.225844 2.967177
LeftArm 26.458846 38.250403 -69.389679
LeftForeArm -0.959488 -0.000000 17.501633
LeftHand -11.101826 -0.000000 -2.738251
LeftHandThumb1 -26.253704 0.000000 33.147579
RightShoulder -23.074257 -10.839099 -20.120743
RightArm -35.422233 60.049610 40.917473
RightForeArm 32.774643 -0.000000 113.935342
RightHand -15.980072 0.000000 -16.280477
RightHandThumb1 -24.326973 -0.000000 -32.862282
LeftUpLeg -0.929441 10.056706 -0.518244
LeftLeg 0.376907 -0.000000 -0.000000
LeftFoot -21.179732 21.742693 -27.041836
LeftToeBase 8.940149 -0.000000 -0.000000
RightUpLeg -3.361299 6.317095 -3.189456
RightLeg -2.927673 -0.000000 0.000000
RightFoot -11.474737 -7.179596 8.716836
RightToeBase 4.854865 -0.000000 -0.000000
3555
root -1.736905 31.882148 -7.150862 6.230570 -10.009416 1.587039
Spine -3.759320 -25.932616 -2.681835
Head 17.563176 41.717604 17.041217
LeftShoulder -17.737097 18.211509 2.978671
LeftArm 26.443278 38.276989 -69.395149
LeftForeArm -0.973139 -0.000000 17.496008
LeftHand -11.095379 0.000000 -2.706282
LeftHandThumb1 -26.253704 0.000000 33.147579
RightShoulder -23.086357 -10.812931 -20.132071
RightArm -35.406932 60.040272 40.931378
RightForeArm 32.729974 -0.000000 113.935906
RightHand -15.961631 0.000000 -16.201736
RightHandThumb1 -24.326973 -0.000000 -32.862282
LeftUpLeg -0.922673 10.065801 -0.516828
LeftLeg 0.369118 -0.000000 -0.000000
LeftFoot -21.179387 21.746960 -27.058758
LeftToeBase 8.914220 -0.000000 -0.000000
RightUpLeg -3.362589 6.315717 -3.186460
RightLeg -2.926109 -0.000000 0.000000
RightFoot -11.470384 -7.169209 8.709127
RightToeBase 4.857710 -0.000000 -0.000000
